# xmcd
#
# Track frame offsets:
#	150
#	20616
#	36531
#	53947
#	68812
#	89131
#	110804
#	133705
#	150986
#	170690
#	185512
#	204397
#	213619
#	232937
#	253027
#	266834
#
# Disc length: 3786
#
# Revision: 2
# Processed by: cddbd v1.5.1PL0 Copyright (c) Steve Scherf et al.
# Submitted via: EasyCDDAExtractor 6.5.0.1
# Normalized: r1:DSETVAR1
#
DISCID=f40ec810
DTITLE=Various Artist - Songs In A Minor
DYEAR=1900
DGENRE=R&B
TTITLE0=Alicia Keys - Piano and I
TTITLE1=Girlfriend
TTITLE2=How Come You Don't Call Me
TTITLE3=Fallin'
TTITLE4=Troubles
TTITLE5=Rock Wit U
TTITLE6=A Woman's Worth
TTITLE7=Jane Doe
TTITLE8=Goodbye
TTITLE9=The Life
TTITLE10=Mr. Man
TTITLE11=Never Felt This Way
TTITLE12=Butterflyz
TTITLE13=Why Do I Feel So Sad
TTITLE14=Caged Bird
TTITLE15=Lovinn' u
EXTD=
EXTT0=
EXTT1=
EXTT2=
EXTT3=
EXTT4=
EXTT5=
EXTT6=
EXTT7=
EXTT8=
EXTT9=
EXTT10=
EXTT11=
EXTT12=
EXTT13=
EXTT14=
EXTT15=
PLAYORDER=
